# xmcd CD database file
#
# Track frame offsets:
#	150
#	27540
#	58717
#	82355
#	119357
#	140150
#	159745
#	180922
#	199100
#	218727
#
# Disc length: 3217 seconds
#
# Revision: 0
# Processed by: cddbd v1.5.1PL2 Copyright (c) Steve Scherf et al.
# Submitted via: CDex 1.51
#
DISCID=960c8f0a
DTITLE=Roger Kellaway - Cleopatra's Dream
DYEAR=1900
DGENRE=Jazz
TTITLE0=2 Part Invention No.13
TTITLE1=Piano Concerto No.2
TTITLE2=The Girl With Flaxen Hair
TTITLE3=Looking For Claude
TTITLE4=24 Prelude OP.28-4
TTITLE5=Cleopatra's Dream
TTITLE6=Pavanne-Lamp is low
TTITLE7=I'm Always Chasing Rainbows
TTITLE8=Lady Fron St. Kitts
TTITLE9=Stranger In Paradise
EXTD=
EXTT0=
EXTT1=
EXTT2=
EXTT3=
EXTT4=
EXTT5=
EXTT6=
EXTT7=
EXTT8=
EXTT9=
PLAYORDER=
